solid Exported from Blender-2.79 (sub 0)
facet normal 0.997780 0.066601 0.000000
outer loop
vertex 0.003525 -0.005173 0.063538
vertex 0.000772 0.036068 -0.008572
vertex 0.000772 0.036068 0.063538
endloop
endfacet
facet normal 0.432278 -0.857454 0.279121
outer loop
vertex 0.000000 -0.006950 0.063538
vertex 0.003525 -0.023932 0.005912
vertex 0.003525 -0.005173 0.063538
endloop
endfacet
facet normal 0.114323 -0.226775 -0.967214
outer loop
vertex -0.000000 0.036068 -0.008572
vertex 0.003525 -0.023932 0.005912
vertex 0.000000 -0.025708 0.005912
endloop
endfacet
facet normal 0.000000 0.000000 1.000000
outer loop
vertex -0.000000 0.036068 0.063538
vertex 0.003525 -0.005173 0.063538
vertex 0.000772 0.036068 0.063538
endloop
endfacet
facet normal 0.000000 1.000000 0.000000
outer loop
vertex -0.000000 0.036068 0.063538
vertex 0.000772 0.036068 -0.008572
vertex -0.000000 0.036068 -0.008572
endloop
endfacet
facet normal 0.152497 0.988304 0.000000
outer loop
vertex 0.000000 0.002080 0.014539
vertex 0.000698 0.001972 -0.010489
vertex 0.000000 0.002080 -0.010489
endloop
endfacet
facet normal 0.471466 0.881884 -0.000000
outer loop
vertex 0.000698 0.001972 0.014539
vertex 0.001026 0.001797 -0.010489
vertex 0.000698 0.001972 -0.010489
endloop
endfacet
facet normal 0.634451 0.772963 0.000000
outer loop
vertex 0.001026 0.001797 0.014539
vertex 0.001313 0.001562 -0.010489
vertex 0.001026 0.001797 -0.010489
endloop
endfacet
facet normal 0.772963 0.634451 -0.000002
outer loop
vertex 0.001313 0.001562 0.014539
vertex 0.001549 0.001275 -0.010489
vertex 0.001313 0.001562 -0.010489
endloop
endfacet
facet normal 0.881895 0.471447 0.000000
outer loop
vertex 0.001549 0.001275 0.014539
vertex 0.001724 0.000947 -0.010489
vertex 0.001549 0.001275 -0.010489
endloop
endfacet
facet normal 0.956965 0.290202 0.000000
outer loop
vertex 0.001724 0.000947 0.014539
vertex 0.001831 0.000592 -0.010489
vertex 0.001724 0.000947 -0.010489
endloop
endfacet
facet normal 0.995181 0.098059 -0.000002
outer loop
vertex 0.001831 0.000592 0.014539
vertex 0.001868 0.000222 -0.010489
vertex 0.001831 0.000592 -0.010489
endloop
endfacet
facet normal 0.995179 -0.098074 0.000000
outer loop
vertex 0.001868 0.000222 0.014539
vertex 0.001831 -0.000147 -0.010489
vertex 0.001868 0.000222 -0.010489
endloop
endfacet
facet normal 0.956965 -0.290203 -0.000002
outer loop
vertex 0.001831 -0.000147 0.014539
vertex 0.001724 -0.000503 -0.010489
vertex 0.001831 -0.000147 -0.010489
endloop
endfacet
facet normal 0.881930 -0.471381 0.000000
outer loop
vertex 0.001724 -0.000503 0.014539
vertex 0.001549 -0.000830 -0.010489
vertex 0.001724 -0.000503 -0.010489
endloop
endfacet
facet normal 0.772963 -0.634451 0.000000
outer loop
vertex 0.001549 -0.000830 0.014539
vertex 0.001313 -0.001117 -0.010489
vertex 0.001549 -0.000830 -0.010489
endloop
endfacet
facet normal 0.634356 -0.773041 -0.000002
outer loop
vertex 0.001313 -0.001117 0.014539
vertex 0.001026 -0.001353 -0.010489
vertex 0.001313 -0.001117 -0.010489
endloop
endfacet
facet normal 0.471466 -0.881884 0.000000
outer loop
vertex 0.001026 -0.001353 0.014539
vertex 0.000698 -0.001528 -0.010489
vertex 0.001026 -0.001353 -0.010489
endloop
endfacet
facet normal 0.152580 -0.988291 0.000000
outer loop
vertex 0.000698 -0.001528 -0.010489
vertex 0.000000 -0.001636 0.014539
vertex 0.000000 -0.001636 -0.010489
endloop
endfacet
facet normal 1.000000 0.000000 0.000000
outer loop
vertex 0.000000 -0.006950 0.063538
vertex -0.000000 0.036068 -0.008572
vertex -0.000000 0.036068 0.063538
endloop
endfacet
facet normal -0.999001 0.042495 -0.013833
outer loop
vertex -0.003525 -0.005173 0.063538
vertex -0.000772 0.036068 -0.008572
vertex -0.003525 -0.023932 0.005912
endloop
endfacet
facet normal -0.432267 -0.857459 0.279122
outer loop
vertex 0.000000 -0.006950 0.063538
vertex -0.003525 -0.023932 0.005912
vertex 0.000000 -0.025708 0.005912
endloop
endfacet
facet normal -0.114323 -0.226775 -0.967214
outer loop
vertex -0.003525 -0.023932 0.005912
vertex -0.000000 0.036068 -0.008572
vertex 0.000000 -0.025708 0.005912
endloop
endfacet
facet normal -0.000001 0.000000 1.000000
outer loop
vertex -0.000000 0.036068 0.063538
vertex -0.003525 -0.005173 0.063538
vertex 0.000000 -0.006950 0.063538
endloop
endfacet
facet normal 0.000000 1.000000 0.000000
outer loop
vertex -0.000772 0.036068 -0.008572
vertex -0.000000 0.036068 0.063538
vertex -0.000000 0.036068 -0.008572
endloop
endfacet
facet normal -0.152497 0.988304 0.000000
outer loop
vertex -0.000698 0.001972 -0.010489
vertex 0.000000 0.002080 0.014539
vertex 0.000000 0.002080 -0.010489
endloop
endfacet
facet normal -0.471466 0.881884 -0.000000
outer loop
vertex -0.001026 0.001797 -0.010489
vertex -0.000698 0.001972 0.014539
vertex -0.000698 0.001972 -0.010489
endloop
endfacet
facet normal -0.634451 0.772963 0.000000
outer loop
vertex -0.001313 0.001562 -0.010489
vertex -0.001026 0.001797 0.014539
vertex -0.001026 0.001797 -0.010489
endloop
endfacet
facet normal -0.772963 0.634451 -0.000002
outer loop
vertex -0.001549 0.001275 -0.010489
vertex -0.001313 0.001562 0.014539
vertex -0.001313 0.001562 -0.010489
endloop
endfacet
facet normal -0.881895 0.471446 0.000000
outer loop
vertex -0.001724 0.000947 -0.010489
vertex -0.001549 0.001275 0.014539
vertex -0.001549 0.001275 -0.010489
endloop
endfacet
facet normal -0.956965 0.290203 0.000000
outer loop
vertex -0.001831 0.000592 -0.010489
vertex -0.001724 0.000947 0.014539
vertex -0.001724 0.000947 -0.010489
endloop
endfacet
facet normal -0.995181 0.098059 -0.000002
outer loop
vertex -0.001868 0.000222 -0.010489
vertex -0.001831 0.000592 0.014539
vertex -0.001831 0.000592 -0.010489
endloop
endfacet
facet normal -0.995179 -0.098075 0.000000
outer loop
vertex -0.001831 -0.000147 -0.010489
vertex -0.001868 0.000222 0.014539
vertex -0.001868 0.000222 -0.010489
endloop
endfacet
facet normal -0.956965 -0.290203 -0.000002
outer loop
vertex -0.001724 -0.000503 -0.010489
vertex -0.001831 -0.000147 0.014539
vertex -0.001831 -0.000147 -0.010489
endloop
endfacet
facet normal -0.881930 -0.471381 0.000000
outer loop
vertex -0.001549 -0.000830 -0.010489
vertex -0.001724 -0.000503 0.014539
vertex -0.001724 -0.000503 -0.010489
endloop
endfacet
facet normal -0.772963 -0.634451 0.000000
outer loop
vertex -0.001313 -0.001117 -0.010489
vertex -0.001549 -0.000830 0.014539
vertex -0.001549 -0.000830 -0.010489
endloop
endfacet
facet normal -0.634356 -0.773041 -0.000002
outer loop
vertex -0.001026 -0.001353 -0.010489
vertex -0.001313 -0.001117 0.014539
vertex -0.001313 -0.001117 -0.010489
endloop
endfacet
facet normal -0.471466 -0.881884 0.000000
outer loop
vertex -0.000698 -0.001528 -0.010489
vertex -0.001026 -0.001353 0.014539
vertex -0.001026 -0.001353 -0.010489
endloop
endfacet
facet normal -0.152579 -0.988291 -0.000000
outer loop
vertex -0.000698 -0.001528 -0.010489
vertex 0.000000 -0.001636 0.014539
vertex -0.000698 -0.001528 0.014539
endloop
endfacet
facet normal 0.999001 0.042495 -0.013833
outer loop
vertex 0.003525 -0.005173 0.063538
vertex 0.003525 -0.023932 0.005912
vertex 0.000772 0.036068 -0.008572
endloop
endfacet
facet normal 0.432267 -0.857459 0.279122
outer loop
vertex 0.000000 -0.006950 0.063538
vertex 0.000000 -0.025708 0.005912
vertex 0.003525 -0.023932 0.005912
endloop
endfacet
facet normal 0.000000 -0.234665 -0.972076
outer loop
vertex -0.000000 0.036068 -0.008572
vertex 0.000772 0.036068 -0.008572
vertex 0.003525 -0.023932 0.005912
endloop
endfacet
facet normal 0.000001 0.000000 1.000000
outer loop
vertex -0.000000 0.036068 0.063538
vertex 0.000000 -0.006950 0.063538
vertex 0.003525 -0.005173 0.063538
endloop
endfacet
facet normal 0.000000 1.000000 -0.000000
outer loop
vertex -0.000000 0.036068 0.063538
vertex 0.000772 0.036068 0.063538
vertex 0.000772 0.036068 -0.008572
endloop
endfacet
facet normal 0.152496 0.988304 -0.000000
outer loop
vertex 0.000000 0.002080 0.014539
vertex 0.000698 0.001972 0.014539
vertex 0.000698 0.001972 -0.010489
endloop
endfacet
facet normal 0.471472 0.881881 0.000000
outer loop
vertex 0.000698 0.001972 0.014539
vertex 0.001026 0.001797 0.014539
vertex 0.001026 0.001797 -0.010489
endloop
endfacet
facet normal 0.634372 0.773028 -0.000002
outer loop
vertex 0.001026 0.001797 0.014539
vertex 0.001313 0.001562 0.014539
vertex 0.001313 0.001562 -0.010489
endloop
endfacet
facet normal 0.773042 0.634355 0.000000
outer loop
vertex 0.001313 0.001562 0.014539
vertex 0.001549 0.001275 0.014539
vertex 0.001549 0.001275 -0.010489
endloop
endfacet
facet normal 0.881895 0.471447 0.000000
outer loop
vertex 0.001549 0.001275 0.014539
vertex 0.001724 0.000947 0.014539
vertex 0.001724 0.000947 -0.010489
endloop
endfacet
facet normal 0.956920 0.290351 -0.000002
outer loop
vertex 0.001724 0.000947 0.014539
vertex 0.001831 0.000592 0.014539
vertex 0.001831 0.000592 -0.010489
endloop
endfacet
facet normal 0.995196 0.097899 0.000000
outer loop
vertex 0.001831 0.000592 0.014539
vertex 0.001868 0.000222 0.014539
vertex 0.001868 0.000222 -0.010489
endloop
endfacet
facet normal 0.995195 -0.097915 -0.000002
outer loop
vertex 0.001868 0.000222 0.014539
vertex 0.001831 -0.000147 0.014539
vertex 0.001831 -0.000147 -0.010489
endloop
endfacet
facet normal 0.956920 -0.290350 0.000000
outer loop
vertex 0.001831 -0.000147 0.014539
vertex 0.001724 -0.000503 0.014539
vertex 0.001724 -0.000503 -0.010489
endloop
endfacet
facet normal 0.881930 -0.471380 0.000000
outer loop
vertex 0.001724 -0.000503 0.014539
vertex 0.001549 -0.000830 0.014539
vertex 0.001549 -0.000830 -0.010489
endloop
endfacet
facet normal 0.773042 -0.634355 -0.000002
outer loop
vertex 0.001549 -0.000830 0.014539
vertex 0.001313 -0.001117 0.014539
vertex 0.001313 -0.001117 -0.010489
endloop
endfacet
facet normal 0.634277 -0.773106 0.000000
outer loop
vertex 0.001313 -0.001117 0.014539
vertex 0.001026 -0.001353 0.014539
vertex 0.001026 -0.001353 -0.010489
endloop
endfacet
facet normal 0.471472 -0.881881 -0.000000
outer loop
vertex 0.001026 -0.001353 0.014539
vertex 0.000698 -0.001528 0.014539
vertex 0.000698 -0.001528 -0.010489
endloop
endfacet
facet normal 0.152579 -0.988291 -0.000000
outer loop
vertex 0.000698 -0.001528 -0.010489
vertex 0.000698 -0.001528 0.014539
vertex 0.000000 -0.001636 0.014539
endloop
endfacet
facet normal 1.000000 0.000000 0.000000
outer loop
vertex 0.000000 -0.006950 0.063538
vertex 0.000000 -0.025708 0.005912
vertex -0.000000 0.036068 -0.008572
endloop
endfacet
facet normal -0.997780 0.066600 0.000000
outer loop
vertex -0.003525 -0.005173 0.063538
vertex -0.000772 0.036068 0.063538
vertex -0.000772 0.036068 -0.008572
endloop
endfacet
facet normal -0.432278 -0.857454 0.279121
outer loop
vertex 0.000000 -0.006950 0.063538
vertex -0.003525 -0.005173 0.063538
vertex -0.003525 -0.023932 0.005912
endloop
endfacet
facet normal 0.000000 -0.234665 -0.972076
outer loop
vertex -0.003525 -0.023932 0.005912
vertex -0.000772 0.036068 -0.008572
vertex -0.000000 0.036068 -0.008572
endloop
endfacet
facet normal 0.000000 0.000000 1.000000
outer loop
vertex -0.000000 0.036068 0.063538
vertex -0.000772 0.036068 0.063538
vertex -0.003525 -0.005173 0.063538
endloop
endfacet
facet normal 0.000000 1.000000 0.000000
outer loop
vertex -0.000772 0.036068 -0.008572
vertex -0.000772 0.036068 0.063538
vertex -0.000000 0.036068 0.063538
endloop
endfacet
facet normal -0.152496 0.988304 -0.000000
outer loop
vertex -0.000698 0.001972 -0.010489
vertex -0.000698 0.001972 0.014539
vertex 0.000000 0.002080 0.014539
endloop
endfacet
facet normal -0.471472 0.881881 0.000000
outer loop
vertex -0.001026 0.001797 -0.010489
vertex -0.001026 0.001797 0.014539
vertex -0.000698 0.001972 0.014539
endloop
endfacet
facet normal -0.634372 0.773028 -0.000002
outer loop
vertex -0.001313 0.001562 -0.010489
vertex -0.001313 0.001562 0.014539
vertex -0.001026 0.001797 0.014539
endloop
endfacet
facet normal -0.773042 0.634355 0.000000
outer loop
vertex -0.001549 0.001275 -0.010489
vertex -0.001549 0.001275 0.014539
vertex -0.001313 0.001562 0.014539
endloop
endfacet
facet normal -0.881895 0.471447 0.000000
outer loop
vertex -0.001724 0.000947 -0.010489
vertex -0.001724 0.000947 0.014539
vertex -0.001549 0.001275 0.014539
endloop
endfacet
facet normal -0.956920 0.290351 -0.000002
outer loop
vertex -0.001831 0.000592 -0.010489
vertex -0.001831 0.000592 0.014539
vertex -0.001724 0.000947 0.014539
endloop
endfacet
facet normal -0.995196 0.097899 0.000000
outer loop
vertex -0.001868 0.000222 -0.010489
vertex -0.001868 0.000222 0.014539
vertex -0.001831 0.000592 0.014539
endloop
endfacet
facet normal -0.995195 -0.097915 -0.000002
outer loop
vertex -0.001831 -0.000147 -0.010489
vertex -0.001831 -0.000147 0.014539
vertex -0.001868 0.000222 0.014539
endloop
endfacet
facet normal -0.956920 -0.290351 0.000000
outer loop
vertex -0.001724 -0.000503 -0.010489
vertex -0.001724 -0.000503 0.014539
vertex -0.001831 -0.000147 0.014539
endloop
endfacet
facet normal -0.881930 -0.471381 0.000000
outer loop
vertex -0.001549 -0.000830 -0.010489
vertex -0.001549 -0.000830 0.014539
vertex -0.001724 -0.000503 0.014539
endloop
endfacet
facet normal -0.773042 -0.634355 -0.000002
outer loop
vertex -0.001313 -0.001117 -0.010489
vertex -0.001313 -0.001117 0.014539
vertex -0.001549 -0.000830 0.014539
endloop
endfacet
facet normal -0.634277 -0.773106 0.000000
outer loop
vertex -0.001026 -0.001353 -0.010489
vertex -0.001026 -0.001353 0.014539
vertex -0.001313 -0.001117 0.014539
endloop
endfacet
facet normal -0.471472 -0.881881 -0.000000
outer loop
vertex -0.000698 -0.001528 -0.010489
vertex -0.000698 -0.001528 0.014539
vertex -0.001026 -0.001353 0.014539
endloop
endfacet
facet normal -0.152580 -0.988291 0.000000
outer loop
vertex -0.000698 -0.001528 -0.010489
vertex 0.000000 -0.001636 -0.010489
vertex 0.000000 -0.001636 0.014539
endloop
endfacet
endsolid Exported from Blender-2.79 (sub 0)
